<?xml version="1.0" standalone="no"?>
<!DOCTYPE svg PUBLIC "-//W3C//DTD SVG 20010904//EN"
 "http://www.w3.org/TR/2001/REC-SVG-20010904/DTD/svg10.dtd">
<svg version="1.0" xmlns="http://www.w3.org/2000/svg"
 width="612.000000pt" height="612.000000pt" viewBox="0 0 612.000000 612.000000"
 preserveAspectRatio="xMidYMid meet">
<metadata>
Created by potrace 1.14, written by Peter Selinger 2001-2017
</metadata>
<g transform="translate(0.000000,612.000000) scale(0.100000,-0.100000)"
fill="#000000" stroke="none">
<path d="M1950 6088 c-14 -15 -20 -36 -21 -67 0 -25 -2 -77 -4 -116 -3 -83 6
-111 37 -121 41 -14 48 -13 75 10 21 18 26 33 29 82 9 142 6 195 -12 215 -24
26 -78 25 -104 -3z"/>
<path d="M1586 5989 c-41 -33 -34 -62 50 -192 79 -122 96 -136 149 -123 29 7
49 48 40 83 -3 12 -18 42 -34 65 -15 24 -45 70 -67 103 -21 33 -45 65 -54 72
-23 18 -54 15 -84 -8z"/>
<path d="M2492 5737 c-81 -26 -122 -63 -122 -109 0 -38 28 -75 63 -83 12 -3
53 5 90 19 77 27 137 27 189 0 88 -46 167 11 142 102 -3 12 -24 31 -46 44 -90
51 -210 61 -316 27z"/>
<path d="M3580 5746 c-62 -18 -126 -52 -134 -71 -21 -57 15 -123 69 -127 17
-1 45 6 62 15 54 28 129 29 197 1 76 -31 91 -30 127 5 55 56 32 113 -61 155
-71 32 -189 42 -260 22z"/>
<path d="M1336 5695 c-30 -28 -33 -64 -8 -93 19 -23 203 -102 236 -102 40 0
66 28 66 69 0 21 -6 43 -13 50 -18 14 -199 89 -230 95 -18 3 -34 -3 -51 -19z"/>
<path d="M3029 5496 c-2 -2 -42 -6 -89 -10 -85 -6 -206 -25 -290 -46 -25 -6
-52 -12 -61 -14 -9 -3 -45 -13 -80 -24 -717 -221 -1276 -810 -1459 -1535 -15
-62 -31 -134 -35 -162 -9 -62 -19 -74 -53 -70 -105 13 -150 84 -156 244 -3 75
-1 84 25 119 82 112 87 286 10 384 -52 66 -150 91 -238 61 -79 -27 -167 -135
-187 -230 -21 -96 4 -205 60 -264 21 -22 25 -37 29 -117 3 -50 9 -102 15 -116
5 -14 8 -26 5 -26 -6 0 41 -113 61 -146 75 -121 186 -188 347 -211 23 -3 43
-7 45 -8 2 -2 6 -43 8 -92 27 -549 249 -1053 634 -1433 252 -249 530 -420 863
-530 l69 -22 -7 -53 c-3 -29 -7 -61 -9 -71 -2 -11 -7 -41 -10 -69 -16 -116
-26 -186 -31 -215 -3 -14 -6 -42 -21 -158 -3 -26 -8 -49 -10 -51 -2 -2 -24 -5
-50 -7 -25 -3 -55 -9 -65 -15 -11 -5 -24 -7 -29 -4 -6 4 -9 3 -8 -2 2 -4 -10
-25 -25 -45 -22 -29 -29 -49 -30 -92 -2 -30 1 -52 5 -50 5 3 8 -1 8 -9 0 -26
60 -75 98 -81 44 -7 251 -11 272 -5 42 12 100 76 106 119 9 55 17 109 20 135
4 39 23 181 29 223 8 54 14 95 20 142 3 25 8 56 10 70 2 14 9 56 15 94 11 73
17 89 28 82 26 -16 397 -25 482 -12 19 3 58 8 85 11 28 3 58 8 68 11 17 5 18
-14 15 -380 -2 -212 0 -386 3 -386 3 0 11 -16 19 -35 9 -23 26 -41 52 -53 20
-11 36 -21 33 -23 -2 -2 33 -3 78 -2 51 1 87 -3 96 -10 12 -9 13 -9 7 1 -5 9
6 12 43 13 28 1 56 2 63 3 7 1 23 11 36 23 14 13 29 20 35 16 6 -3 7 -1 3 5
-3 6 2 26 12 44 10 18 18 38 16 43 -1 6 -5 26 -8 47 -12 66 -79 119 -156 122
l-25 1 0 324 0 323 80 29 c117 43 327 149 428 216 318 215 557 476 724 789 36
67 49 84 62 78 174 -72 325 46 316 248 l-3 68 63 35 c141 79 224 193 230 318
10 192 -118 374 -362 521 -40 24 -65 45 -67 59 -3 12 -12 62 -21 111 -61 330
-212 658 -432 940 -131 168 -372 379 -574 502 -234 143 -553 257 -809 289 -30
4 -64 9 -75 11 -25 6 -351 14 -356 10z m323 -1252 c263 -59 507 -247 628 -483
83 -165 122 -393 96 -561 -74 -461 -466 -803 -922 -802 -420 1 -776 264 -898
662 -149 491 120 1002 614 1165 133 44 334 52 482 19z m2039 -1088 c53 -71 36
-118 -60 -166 l-44 -22 7 64 c4 35 9 72 11 83 2 11 4 44 4 74 l1 54 26 -24
c15 -13 40 -42 55 -63z"/>
<path d="M2910 640 c0 -5 5 -10 11 -10 5 0 7 5 4 10 -3 6 -8 10 -11 10 -2 0
-4 -4 -4 -10z"/>
<path d="M2910 559 c0 -5 5 -7 10 -4 6 3 10 8 10 11 0 2 -4 4 -10 4 -5 0 -10
-5 -10 -11z"/>
<path d="M3270 520 c0 -5 5 -10 11 -10 5 0 7 5 4 10 -3 6 -8 10 -11 10 -2 0
-4 -4 -4 -10z"/>
<path d="M3336 522 c-3 -5 1 -9 9 -9 8 0 12 4 9 9 -3 4 -7 8 -9 8 -2 0 -6 -4
-9 -8z"/>
<path d="M1950 479 c0 -5 5 -7 10 -4 6 3 10 8 10 11 0 2 -4 4 -10 4 -5 0 -10
-5 -10 -11z"/>
<path d="M3195 431 c-3 -5 -2 -12 3 -15 5 -3 9 1 9 9 0 17 -3 19 -12 6z"/>
<path d="M1790 399 c0 -5 5 -7 10 -4 6 3 10 8 10 11 0 2 -4 4 -10 4 -5 0 -10
-5 -10 -11z"/>
<path d="M4110 400 c0 -5 5 -10 11 -10 5 0 7 5 4 10 -3 6 -8 10 -11 10 -2 0
-4 -4 -4 -10z"/>
<path d="M3193 335 c0 -8 4 -12 9 -9 5 3 6 10 3 15 -9 13 -12 11 -12 -6z"/>
<path d="M1710 320 c0 -5 5 -10 11 -10 5 0 7 5 4 10 -3 6 -8 10 -11 10 -2 0
-4 -4 -4 -10z"/>
<path d="M2675 240 c-3 -5 -1 -10 4 -10 6 0 11 5 11 10 0 6 -2 10 -4 10 -3 0
-8 -4 -11 -10z"/>
<path d="M3635 240 c3 -5 8 -10 11 -10 2 0 4 5 4 10 0 6 -5 10 -11 10 -5 0 -7
-4 -4 -10z"/>
<path d="M3046 202 c-3 -5 1 -9 9 -9 8 0 12 4 9 9 -3 4 -7 8 -9 8 -2 0 -6 -4
-9 -8z"/>
<path d="M3115 200 c-3 -5 -1 -10 4 -10 6 0 11 5 11 10 0 6 -2 10 -4 10 -3 0
-8 -4 -11 -10z"/>
<path d="M2395 181 c-3 -5 -2 -12 3 -15 5 -3 9 1 9 9 0 17 -3 19 -12 6z"/>
<path d="M2595 160 c3 -5 8 -10 11 -10 2 0 4 5 4 10 0 6 -5 10 -11 10 -5 0 -7
-4 -4 -10z"/>
<path d="M2670 159 c0 -5 5 -7 10 -4 6 3 10 8 10 11 0 2 -4 4 -10 4 -5 0 -10
-5 -10 -11z"/>
<path d="M3395 160 c3 -5 8 -10 11 -10 2 0 4 5 4 10 0 6 -5 10 -11 10 -5 0 -7
-4 -4 -10z"/>
<path d="M3470 159 c0 -5 5 -7 10 -4 6 3 10 8 10 11 0 2 -4 4 -10 4 -5 0 -10
-5 -10 -11z"/>
<path d="M3193 105 c0 -8 4 -12 9 -9 5 3 6 10 3 15 -9 13 -12 11 -12 -6z"/>
<path d="M3395 80 c3 -5 8 -10 11 -10 2 0 4 5 4 10 0 6 -5 10 -11 10 -5 0 -7
-4 -4 -10z"/>
<path d="M3105 40 c-3 -6 1 -7 9 -4 18 7 21 14 7 14 -6 0 -13 -4 -16 -10z"/>
</g>
</svg>
